<svg xmlns="http://www.w3.org/2000/svg" viewBox="0 0 512 512">
  <rect width="512" height="512" rx="96" fill="#fffdf8"/>
  <g fill="none" stroke-linecap="round" stroke-linejoin="round">
    <g stroke="#F6A52D" stroke-width="22">
      <path d="M256 53v40"/>
      <path d="M130 94l25 33"/>
      <path d="M382 94l-25 33"/>
      <path d="M76 184l42 13"/>
      <path d="M436 184l-42 13"/>
      <path d="M86 305l39-17"/>
      <path d="M426 305l-39-17"/>
    </g>
    <path d="M256 115c-103 0-174 72-174 169 0 59 31 103 66 136 18 17 27 34 32 52h152c5-18 14-35 32-52 35-33 66-77 66-136 0-97-71-169-174-169z"
          stroke="#0E2B40" stroke-width="25"/>
    <path d="M180 422h152M198 462h116" stroke="#0E2B40" stroke-width="25"/>
    <path d="M218 487h76" stroke="#0E2B40" stroke-width="25"/>
    <path d="M188 194h118l42 42v133H188z" fill="#fff" stroke="#0E2B40" stroke-width="18"/>
    <path d="M306 194v42h42" fill="#E7EBEE" stroke="#0E2B40" stroke-width="18"/>
    <path d="M215 245h70M215 292h70M215 339h70" stroke="#0E2B40" stroke-width="14"/>
    <rect x="304" y="235" width="34" height="34" rx="4" stroke="#0E2B40" stroke-width="12"/>
    <rect x="304" y="282" width="34" height="34" rx="4" stroke="#0E2B40" stroke-width="12"/>
    <rect x="304" y="329" width="34" height="34" rx="4" stroke="#0E2B40" stroke-width="12"/>
    <path d="M309 251l10 10 23-27M309 298l10 10 23-27" stroke="#20B8A6" stroke-width="12"/>
  </g>
</svg>